<svg width="28" height="21" fill="none" xmlns="http://www.w3.org/2000/svg"><g clip-path="url(#a)"><rect width="28" height="21" rx="3" fill="#1A47B8"/><path fill-rule="evenodd" clip-rule="evenodd" d="M2.979 0H0v3.5L25.005 21H28v-3.5L2.979 0z" fill="#fff"/><path d="M.993 0 28 18.95V21h-.97L0 2.03V0h.993z" fill="#F93939"/><path fill-rule="evenodd" clip-rule="evenodd" d="M25.333 0H28v3.5S10.68 15.16 2.667 21H0v-3.5L25.333 0z" fill="#fff"/><path d="M28 0h-.904L0 18.966V21h.993L28 2.046V0z" fill="#F93939"/><path fill-rule="evenodd" clip-rule="evenodd" d="M10.183 0h7.657v6.478H28v8.04H17.84V21h-7.657v-6.482H0v-8.04h10.183V0z" fill="#fff"/><path fill-rule="evenodd" clip-rule="evenodd" d="M11.79 0h4.42v8.077H28v4.846H16.21V21h-4.42v-8.077H0V8.077h11.79V0z" fill="#F93939"/></g><defs><clipPath id="a"><rect width="28" height="21" rx="3" fill="#fff"/></clipPath></defs></svg>