<svg width="42" height="42" fill="none" xmlns="http://www.w3.org/2000/svg"><path d="M29.032 13.423C21.804 6.213 12.774 3.92 8.488 8.208 4.2 12.496 6.493 21.526 13.72 28.736c4.761 4.76 10.308 7.385 14.77 7.385 2.293 0 4.305-.7 5.775-2.152 4.27-4.288 1.978-13.318-5.233-20.545v-.001ZM9.94 9.66c1.033-1.033 2.52-1.523 4.27-1.523 1.295 0 2.747.298 4.252.823l-9.223 9.223c-1.243-3.534-1.12-6.72.7-8.522l.001-.001Zm.229 10.745L20.685 9.888l-.036-.035c2.346 1.155 4.742 2.852 6.93 5.023 1.96 1.96 3.535 4.112 4.673 6.23l-.017-.017-10.868 10.868c-2.117-1.138-4.252-2.713-6.212-4.656-2.152-2.17-3.832-4.55-4.987-6.894v-.002Zm22.627 12.11c-1.942 1.942-5.46 1.96-9.257.437l9.713-9.696c1.505 3.816 1.487 7.315-.456 9.257v.002Z" fill="#fff"/></svg>