<svg width="42" height="42" fill="none" xmlns="http://www.w3.org/2000/svg"><g clip-path="url(#a)"><path d="M21 0C9.417 0 0 9.417 0 21s9.417 21 21 21 21-9.417 21-21S32.583 0 21 0Zm12.731 29.236c.525.492.525 1.345.033 1.87-.262.263-.59.394-.952.394a1.41 1.41 0 0 1-.918-.36c-2.79-2.724-4.331-6.3-4.331-10.14 0-3.84 1.542-7.416 4.364-10.14a1.337 1.337 0 0 1 1.87.034 1.337 1.337 0 0 1-.033 1.87c-2.33 2.199-3.577 5.119-3.577 8.236 0 3.117 1.247 6.038 3.544 8.236Zm-23.625 1.903a1.26 1.26 0 0 1-.918.361 1.37 1.37 0 0 1-.952-.394 1.338 1.338 0 0 1 .033-1.87c2.297-2.198 3.543-5.119 3.543-8.236 0-3.117-1.246-6.037-3.51-8.269-.525-.492-.525-1.345-.033-1.87.492-.525 1.345-.525 1.87-.033 2.756 2.724 4.299 6.333 4.299 10.172 0 3.84-1.543 7.448-4.332 10.14Z" fill="#fff"/></g><defs><clipPath id="a"><path fill="#fff" d="M0 0h42v42H0z"/></clipPath></defs></svg>