<svg width="42" height="42" fill="none" xmlns="http://www.w3.org/2000/svg"><g clip-path="url(#a)"><path d="M21 0C9.417 0 0 9.417 0 21s9.417 21 21 21 21-9.417 21-21S32.583 0 21 0Zm14.044 29.236c.525.492.525 1.345.033 1.87-.263.263-.591.394-.952.394a1.41 1.41 0 0 1-.919-.36c-2.46-2.396-3.97-5.48-4.265-8.828h-6.628V36.75c0 .722-.591 1.313-1.313 1.313s-1.313-.591-1.313-1.313V22.312H13.06c-.295 3.347-1.771 6.432-4.232 8.827a1.389 1.389 0 0 1-1.904-.033 1.338 1.338 0 0 1 .033-1.87 11.211 11.211 0 0 0 3.446-6.924H5.25c-.722 0-1.313-.59-1.313-1.312 0-.722.591-1.313 1.313-1.313h5.152c-.296-2.625-1.477-5.053-3.446-6.956-.525-.492-.525-1.345-.033-1.87.493-.525 1.346-.525 1.87-.033 2.462 2.395 3.938 5.48 4.234 8.827h6.66V5.25c0-.722.591-1.313 1.313-1.313s1.313.591 1.313 1.313v14.438h6.628c.328-3.347 1.804-6.432 4.298-8.827a1.337 1.337 0 0 1 1.87.033 1.337 1.337 0 0 1-.032 1.87c-1.97 1.903-3.183 4.299-3.479 6.924h5.152c.722 0 1.313.59 1.313 1.312 0 .722-.591 1.313-1.313 1.313h-5.184c.295 2.625 1.509 5.02 3.478 6.923Z" fill="#fff"/></g><defs><clipPath id="a"><path fill="#fff" d="M0 0h42v42H0z"/></clipPath></defs></svg>