<svg width="42" height="42" fill="none" xmlns="http://www.w3.org/2000/svg"><g clip-path="url(#a)"><path d="M42 11.025c0 1.05-.46 2.067-1.247 2.822l-5.151 4.79c-1.214-1.903-3.446-3.15-5.972-3.15-3.872 0-6.99 2.92-6.99 6.53 0 2.363 1.379 4.43 3.38 5.578l-6.3 5.874c-.295.295-.754.36-1.148.23L14.93 32.32l-7.94 7.383c-.592.558-1.412.886-2.265.886-.853 0-1.673-.295-2.264-.886l-1.51-1.41A2.815 2.815 0 0 1 0 36.158c0-.787.328-1.542.952-2.132l7.907-7.35-1.476-3.413c-.164-.36-.066-.787.23-1.083L28.645 2.56c1.608-1.509 4.43-1.509 6.038 0l6.07 5.644c.788.755 1.247 1.74 1.247 2.822Zm-12.37 6.464c-2.658 0-4.857 2.034-4.857 4.528 0 2.494 2.166 4.528 4.857 4.528 2.658 0 4.856-2.034 4.856-4.528-.033-2.494-2.198-4.528-4.856-4.528Z" fill="#fff"/></g><defs><clipPath id="a"><path fill="#fff" d="M0 0h42v42H0z"/></clipPath></defs></svg>