<svg width="42" height="42" fill="none" xmlns="http://www.w3.org/2000/svg"><path d="m34.689 5.827-23.87 23.94c-.158.175-.35.35-.56.508-.263-.613-.736-1.925-1.086-4.217-.105-.7-.385-2.555-1.733-2.782-1.243-.21-2.047 1.155-2.257 1.575l-.105.193-.017.227c-.28 4.567.402 7.052 2.17 7.822.35.158.717.227 1.066.227 1.907 0 3.763-1.873 3.99-2.117L36.122 7.28l-1.434-1.453ZM8.054 31.22c-.21-.088-1.19-.752-.98-5.267.017.122.052.263.07.437.402 2.625.944 4.13 1.295 4.883-.14 0-.28-.017-.385-.053Zm3.728-8.26a2.401 2.401 0 0 0 2.398-2.399 2.39 2.39 0 0 0-2.398-2.397 2.401 2.401 0 0 0-2.398 2.397 2.413 2.413 0 0 0 2.398 2.398Zm0-2.748c.193 0 .35.158.35.35 0 .385-.7.385-.7 0 0-.192.158-.35.351-.35h-.001Z" fill="#fff"/></svg>