<svg width="42" height="42" fill="none" xmlns="http://www.w3.org/2000/svg"><path d="M21.5 0C10.194 0 1 9.194 1 20.5S10.194 41 21.5 41 42 31.806 42 20.5 32.806 0 21.5 0Zm15.883 29.339a1.078 1.078 0 0 0-.611-.078l-6.907 1.243-2.327-3.434 2.782-8.563 4.025-1.263 4.894 4.558c.118.1.256.178.395.237-.256 2.644-1.026 5.11-2.25 7.3h-.001ZM12.62 30.504l-6.67-.632h-.019a18.429 18.429 0 0 1-2.446-6.886.936.936 0 0 0 .315-.237l4.755-5.209 3.592 1.106 2.722 8.405-2.249 3.453Zm-5.643-14.64-3.63 3.985a18.09 18.09 0 0 1 2.723-8.919l.907 4.932v.002Zm10.023 10.22-2.604-7.992 6.807-4.953 6.807 4.953-2.604 7.991H17Zm18.824-10.575.552-5.427a18.15 18.15 0 0 1 3.236 8.957l-3.788-3.532v.002Zm-1.42-7.814a1.32 1.32 0 0 0-.139.395l-.73 7.004-3.984 1.243-7.203-5.228.02-3.808 5.938-2.978a1.14 1.14 0 0 0 .474-.493c2.111.947 4.025 2.25 5.623 3.867v-.002ZM26.017 2.9l-4.814 2.408-4.636-2.29c1.579-.433 3.215-.69 4.932-.69 1.558-.02 3.078.197 4.518.572ZM13.647 4.123l.059.059 6.353 3.137-.02 3.808-7.261 5.287-3.552-1.105-1.203-6.551c-.019-.119-.078-.197-.118-.296a17.948 17.948 0 0 1 5.742-4.34Zm-5.92 28.235 4.776.454 2.979 4.835a18.306 18.306 0 0 1-7.755-5.288v-.001Zm10.676 6.038c.019-.218-.02-.455-.159-.67l-3.689-5.98 2.21-3.373h8.839l2.348 3.452-3.019 5.979a1.31 1.31 0 0 0-.118.532c-1.085.197-2.21.316-3.334.316-1.047.04-2.072-.079-3.078-.257Zm9.253-.809 2.408-4.775 5.663-1.025a18.119 18.119 0 0 1-8.07 5.8Z" fill="#fff"/></svg>