<svg width="42" height="42" fill="none" xmlns="http://www.w3.org/2000/svg"><path d="M4.777 13.72v3.132c0 1.803 2.835 2.608 5.635 2.608 2.818 0 5.653-.804 5.653-2.713V13.44h-.053c-.262-2.117-4.69-2.24-5.617-2.24-.91 0-5.338.122-5.6 2.222h-.018v.105c0 .035-.017.07-.017.088 0 .035.017.07.017.105Zm9.24 2.94c-.332.28-1.627.735-3.605.735-1.96 0-3.255-.456-3.587-.718V15.59c1.382.42 3.062.456 3.57.456.525 0 2.222-.036 3.622-.473v1.086Zm-3.622-3.413c1.348 0 2.362.175 2.992.368-.613.21-1.644.384-2.992.384s-2.363-.174-2.993-.367c.63-.193 1.663-.385 2.993-.385Zm25.55-8.277-7.63 21.018-13.754-2.346-8.837.035c-1.103 0-2.136.561-2.748 1.488a3.258 3.258 0 0 0-.28 3.097l2.609 6.09a3.998 3.998 0 0 0 3.675 2.415l18.515-.017a3.25 3.25 0 0 0 3.133-2.31l.666-2.117 9.31-25.637-4.656-1.716h-.003Zm-6.58 26.705-.683 2.152a1.24 1.24 0 0 1-1.19.876l-18.498.035a1.97 1.97 0 0 1-1.802-1.19l-2.608-6.09a1.22 1.22 0 0 1 .105-1.172c.227-.35.613-.561 1.033-.561l8.663-.035 15.277 2.607L37.17 7.595l.823.298-8.627 23.783-.002-.001Z" fill="#fff"/></svg>