<svg width="42" height="42" fill="none" xmlns="http://www.w3.org/2000/svg"><path d="m38.867 37.45-3.92-3.92c4.077-4.568.56-8.558-1.191-10.536l-.193-.21c-1.61-1.82-2.888-4.393-3.133-4.9-2.222-9.502-4.742-14.402-7.665-14.962-1.506-.28-2.642.647-3.133 1.295l-7.84 7.718-7.648 7.753c-.647.49-1.575 1.644-1.295 3.133.56 2.922 5.443 5.424 14.962 7.664.508.246 3.08 1.54 4.9 3.133l.21.175c.666.578 1.54 1.365 2.59 1.995l.017.017c1.033.613 2.24 1.103 3.534 1.103 1.365 0 2.835-.508 4.393-1.907l3.92 3.92 1.488-1.47.004-.001Zm-7.892-7.875 2.484-2.485 1.138 1.138.053-.053c.315 1.225.052 2.485-1.155 3.92l-2.52-2.52Zm-16.8-8.102 2.87-2.87 3.202 3.202-2.87 2.87-3.202-3.202Zm1.715 4.69-1.365 1.364c-1.978-.56-3.553-1.102-4.795-1.61l2.957-2.957 3.203 3.202Zm5.127-11.533 3.202 3.203-2.484 2.485-3.203-3.203 2.485-2.484Zm-3.955 1.015-3.028-3.028 2.503-2.467 3.01 3.01-2.485 2.484v.001Zm11.393 2.818.07.193c.016.052.245.508.594 1.155l-1.995-1.995.945-.945c.122.525.262 1.033.384 1.592h.002Zm.017 3.622-2.485 2.485-2.8-2.8 2.485-2.484 2.8 2.8Zm-2.8-5.705-3.202-3.202L25.847 9.8c.508 1.26 1.05 2.818 1.61 4.795l-1.785 1.785ZM21.7 23.24l2.8 2.8-2.87 2.87-2.8-2.8 2.87-2.87Zm1.383 7.122 2.87-2.87 2.1 2.1-2.87 2.87-2.1-2.1Zm4.358-4.339 2.485-2.485 2.1 2.1-2.485 2.485-2.1-2.1ZM21.122 5.618l.122-.14s.403-.543.962-.543c.052 0 .105 0 .157.017.403.07 1.418.56 2.713 3.167l-.227-.262-3.85 3.85-2.992-2.993 3.115-3.098v.002Zm-8.575 8.47 3.028 3.027-2.87 2.87-3.01-3.01 2.852-2.887Zm-7.665 8.365c-.14-.647.508-1.138.525-1.138l2.783-2.818 3.01 3.01-3.501 3.5c-2.275-1.224-2.747-2.17-2.818-2.555l.001.001Zm11.935 5.687.508-.508.857.857c-.473-.14-.928-.245-1.365-.35v.001Zm10.185 6.143-.368-.368 2.87-2.87 2.52 2.52c-1.854 1.592-3.464 1.54-5.022.718Z" fill="#fff"/></svg>