<svg width="42" height="42" fill="none" xmlns="http://www.w3.org/2000/svg"><g clip-path="url(#a)"><path d="M38.85 8.367h.36a2.94 2.94 0 0 1 2.954 2.953v26.71a2.962 2.962 0 0 1-2.953 2.953H21.886a2.962 2.962 0 0 1-2.953-2.953v-1.608a2.962 2.962 0 0 1 2.953-2.953H36.29c1.378 0 2.69-1.346 2.69-3.183 0-6.628-.131-15.29-.131-21.919ZM1.936 4.922h7.35v-.23c0-.984.787-1.772 1.772-1.772h7.153V2.79c0-.984.787-1.772 1.772-1.772h6.923c.985 0 1.772.788 1.772 1.772v.131h6.53a2.409 2.409 0 0 1 2.395 2.396v23.756c0 1.312-1.083 2.395-2.428 2.395h-3.577c-1.312 0-2.428-1.083-2.428-2.395v-18.44c-.689.032-1.804.327-1.772 1.443v17.03c0 1.312-1.082 2.395-2.428 2.395h-3.74c-1.313 0-2.428-1.083-2.428-2.395V10.959c-.69.033-1.608.328-1.575 1.444v16.702c0 1.312-1.083 2.395-2.429 2.395h-3.215c-1.313 0-2.428-1.083-2.428-2.395v-15.16c-.69.033-1.575.328-1.51 1.444v13.716c0 1.312-1.082 2.395-2.428 2.395H2.428C1.116 31.5 0 30.417 0 29.105V6.726C.164 5.71.952 4.922 1.936 4.922Z" fill="#fff"/></g><defs><clipPath id="a"><path fill="#fff" d="M0 0h42v42H0z"/></clipPath></defs></svg>