<svg width="42" height="42" fill="none" xmlns="http://www.w3.org/2000/svg"><g clip-path="url(#a)"><path d="M41.705 2.56 39.638.524C39.244.13 38.62.13 38.194.492l-2.757 2.56c-.196.196-.328.459-.328.721 0 .263.099.525.296.722l2.198 2.166c.197.197.46.295.722.295a.994.994 0 0 0 .722-.328l2.592-2.723c.46-.329.46-.985.066-1.346Zm-5.447 5.676-2.363-2.33c-.393-.394-1.017-.394-1.443-.033L1.214 35.175A3.886 3.886 0 0 0 0 37.898c0 1.05.394 2.035 1.116 2.757a3.848 3.848 0 0 0 2.723 1.115 3.87 3.87 0 0 0 2.79-1.181L36.224 9.647a.963.963 0 0 0 .033-1.411Zm1.64 17.325H27.661c-1.706 0-3.084 1.378-3.084 3.051v10.14c0 1.673 1.378 3.051 3.084 3.051h10.237c1.707 0 3.085-1.378 3.085-3.052V28.612c0-1.673-1.378-3.051-3.085-3.051ZM32.78 37.767c-2.297 0-4.135-1.805-4.135-4.069 0-2.23 1.838-4.068 4.135-4.068 2.297 0 4.134 1.804 4.134 4.068 0 2.232-1.87 4.07-4.134 4.07Z" fill="#fff"/></g><defs><clipPath id="a"><path fill="#fff" d="M0 0h42v42H0z"/></clipPath></defs></svg>