<svg width="42" height="42" fill="none" xmlns="http://www.w3.org/2000/svg"><g clip-path="url(#a)"><path d="M0 21c0 11.583 9.286 21 20.737 21 1.51 0 2.986-.164 4.43-.492-1.181-1.936-4.495-6.464-10.828-9.155-.328-.131-7.81-3.708-9.45-10.369-.886-3.609.131-7.35 3.019-11.09l-.066.098c.131-.197 3.412-5.151 8.86-5.676 3.609-.329 7.185 1.312 10.63 4.954l.099.099.098.131c2.035 3.15 8.335 11.058 13.913 11.222 0-.23.033-.492.033-.722 0-11.583-9.286-21-20.738-21C9.286 0 0 9.417 0 21Zm24.937-8.564c-2.69-2.822-5.381-4.134-7.908-3.905-3.904.361-6.464 4.2-6.496 4.233l-.033.066-.033.033c-2.231 2.92-3.052 5.742-2.428 8.334 1.247 5.119 7.612 8.17 7.612 8.203 7.94 3.347 11.714 9.352 12.666 11.123 6.53-2.592 11.452-8.465 12.797-15.618-7.94-.427-15.192-11.025-16.177-12.47Z" fill="#fff"/></g><defs><clipPath id="a"><path fill="#fff" d="M0 0h42v42H0z"/></clipPath></defs></svg>