<svg width="42" height="42" fill="none" xmlns="http://www.w3.org/2000/svg"><path d="m41.967 29.498-1.083-.59-.032-.033.13-10.106c0-.46-.13-.952-.393-1.346l-6.169-9.22a2.352 2.352 0 0 0-1.837-1.017 2.259 2.259 0 0 0-1.903.886l-7.908 9.975h-.033l-1.181.033h-.033l-4.987-5.907a2.359 2.359 0 0 0-2.954-.525l-8.728 5.02s-.033 0-.033.034c-.032.032-.098.065-.13.098-.034 0-.034.033-.066.033a.455.455 0 0 1-.132.098l-.032.033-.132.131-.065.066c-.033.033-.033.066-.066.098l-.066.066a.249.249 0 0 0-.065.131c0 .033-.033.033-.033.066-.033.065-.066.098-.098.164 0 0 0 .033-.033.033-.033.032-.033.098-.066.13 0 .034 0 .034-.033.067 0 .032-.033.065-.033.13 0 .034-.032.066-.032.1 0 .065-.033.098-.033.163v.066c0 .066-.033.131-.033.197V29.433c0 .032 0 .032-.033.032L.032 31.14 0 31.172v4.134c.098.164.164.361.164.558v.328l.033.033 6.76-3.15a2.359 2.359 0 0 0 1.345-2.133v-5.61c0-.034.065-.067.065-.034l11.649 14.044c.13 0 2.854-.033 3.773-.033 0 0 .033 0 .033-.032.59-.82.558-2.002-.099-2.822L9.581 19.359c-.033-.033 0-.065 0-.065l4.594-2.625h.066l4.462 5.315c.46.525 1.083.82 1.772.82h.098l.92-.032h.032c.066.098.164.164.263.262a2.346 2.346 0 0 0 3.28-.393l.034-.033 1.017-.033c1.247-.066 2.297-1.017 2.33-2.231a2.123 2.123 0 0 0-.427-1.411V18.9l4.266-5.414c.032-.033.065-.033.065 0l2.756 4.069v.065l-7.415 6.53a2.339 2.339 0 0 0-.788 1.739v12.567c0 .295.066.558.132.82 0 .033.032.033.032.033 1.444 0 2.855 0 4.299-.032.033 0 .033 0 .033-.033.098-.263.13-.525.13-.788V26.906l4.66-4.101c.033-.033.066 0 .066.032l-.099 7.35c0 .886.46 1.707 1.247 2.1l4.496 2.461c.032-.032.032-.032.065-.032v-5.218c.033.033.033 0 0 0ZM20.803 14.142a2.893 2.893 0 0 0 2.69-2.69A2.864 2.864 0 0 0 20.64 8.4c-1.575 0-2.887 1.28-2.887 2.855a2.87 2.87 0 0 0 3.051 2.887ZM27.858 8.4a2.893 2.893 0 0 0 2.69-2.69 2.864 2.864 0 0 0-2.854-3.052c-1.575 0-2.888 1.28-2.888 2.854-.033 1.641 1.378 2.986 3.052 2.888Z" fill="#fff"/></svg>