<svg style="display: none;"
    xmlns="http://www.w3.org/2000/svg">
    <symbol id="schedule__details-svg" viewBox="0 0 12 11">
        <g>
            <path d="M5.8004 0.229187C2.994 0.229187 0.712769 2.51041 0.712769 5.31682C0.712769 8.12322 2.994 10.4044 5.8004 10.4044C8.6068 10.4044 10.888 8.12322 10.888 5.31682C10.888 2.51041 8.6068 0.229187 5.8004 0.229187ZM7.33216 2.05089L5.9481 1.34518V0.978655C6.94922 1.01148 7.90657 1.39442 8.66151 2.05089H7.33216ZM8.97333 2.35177C9.42738 2.83865 9.75562 3.41306 9.95256 4.04764L9.17574 5.40435L8.03239 5.22929L6.99298 3.43494L7.40874 2.3463C7.41422 2.35177 8.97333 2.35177 8.97333 2.35177ZM6.65928 3.63735L7.66039 5.37699L6.77963 6.89781H4.82117L3.9404 5.37152L4.94152 3.63188H6.65928V3.63735ZM5.65269 1.34518L4.26864 2.05089H2.93382C3.68876 1.38895 4.64611 1.01148 5.64722 0.978655V1.34518H5.65269ZM4.18658 2.35177L4.60234 3.44041L3.56841 5.22929L2.43053 5.40435L1.64277 4.0367C1.83971 3.40759 2.17341 2.83318 2.63294 2.35177H4.18658ZM2.26094 5.70523L2.33206 7.13851L1.96553 7.35734C1.62635 6.72822 1.4513 6.02799 1.4513 5.31135C1.4513 5.02688 1.47865 4.73147 1.5443 4.45247L2.26094 5.70523ZM2.46335 7.41204L3.71611 8.21075L4.4054 9.43068C3.45899 9.11339 2.64388 8.46786 2.11323 7.61445L2.46335 7.41204ZM4.06076 8.22716L4.82117 7.29169H6.77416L7.53457 8.22716L6.77416 9.5401C6.4514 9.61668 6.12863 9.65498 5.79493 9.66045C5.46122 9.66045 5.13846 9.62215 4.8157 9.5401L4.06076 8.22716ZM7.19539 9.41974L7.88468 8.21622L9.13744 7.41751L9.48209 7.61993C8.95145 8.46239 8.1418 9.10245 7.19539 9.41974ZM9.26327 7.13851L9.33438 5.70523L10.0565 4.45794C10.1112 4.73694 10.144 5.02141 10.1495 5.31135C10.1495 6.02799 9.97444 6.72822 9.63527 7.35734L9.26327 7.13851Z" fill="#22B14C" />
        </g>
    </symbol>

    <symbol id="schedule__item-close-svg" viewBox="0 0 13 16">
        <g>
            <path fill-rule="evenodd" clip-rule="evenodd" d="M10.4524 4.5431C10.4524 2.03398 8.52539 0 6.14843 0C3.77146 0 1.84448 2.03391 1.84448 4.5431V8.43708H3.07424V4.5431C3.07424 2.75093 4.45053 1.29802 6.14836 1.29802C7.84619 1.29802 9.22248 2.75093 9.22248 4.5431V8.43708H10.4522L10.4524 4.5431Z" fill="#858585" />
            <path fill-rule="evenodd" clip-rule="evenodd" d="M0 7.79179V14.2742C0 14.9932 0.552362 15.576 1.22409 15.576H11.0727C11.7487 15.576 12.2968 14.9937 12.2968 14.2742V7.79179C12.2968 7.07279 11.7445 6.49005 11.0727 6.49005H1.22409C0.548113 6.49005 0 7.07213 0 7.79179Z" fill="#858585" />
        </g>
    </symbol>

    <symbol id="schedule__item-black-svg" viewBox="0 0 25 24">
        <g>
            <path d="M8.85964 6.375H21.0418M8.85964 11.625H21.0418M8.85964 16.875H21.0418M4.29134 6.375H4.29844V6.383H4.29134V6.375ZM4.67203 6.375C4.67203 6.47446 4.63192 6.56984 4.56053 6.64016C4.48913 6.71049 4.3923 6.75 4.29134 6.75C4.19037 6.75 4.09354 6.71049 4.02215 6.64016C3.95075 6.56984 3.91064 6.47446 3.91064 6.375C3.91064 6.27554 3.95075 6.18016 4.02215 6.10984C4.09354 6.03951 4.19037 6 4.29134 6C4.3923 6 4.48913 6.03951 4.56053 6.10984C4.63192 6.18016 4.67203 6.27554 4.67203 6.375ZM4.29134 11.625H4.29844V11.633H4.29134V11.625ZM4.67203 11.625C4.67203 11.7245 4.63192 11.8198 4.56053 11.8902C4.48913 11.9605 4.3923 12 4.29134 12C4.19037 12 4.09354 11.9605 4.02215 11.8902C3.95075 11.8198 3.91064 11.7245 3.91064 11.625C3.91064 11.5255 3.95075 11.4302 4.02215 11.3598C4.09354 11.2895 4.19037 11.25 4.29134 11.25C4.3923 11.25 4.48913 11.2895 4.56053 11.3598C4.63192 11.4302 4.67203 11.5255 4.67203 11.625V11.625ZM4.29134 16.875H4.29844V16.883H4.29134V16.875ZM4.67203 16.875C4.67203 16.9745 4.63192 17.0698 4.56053 17.1402C4.48913 17.2105 4.3923 17.25 4.29134 17.25C4.19037 17.25 4.09354 17.2105 4.02215 17.1402C3.95075 17.0698 3.91064 16.9745 3.91064 16.875C3.91064 16.7755 3.95075 16.6802 4.02215 16.6098C4.09354 16.5395 4.19037 16.5 4.29134 16.5C4.3923 16.5 4.48913 16.5395 4.56053 16.6098C4.63192 16.6802 4.67203 16.7755 4.67203 16.875Z" stroke="white" stroke-width="1.5" stroke-linecap="round" stroke-linejoin="round" />
        </g>
    </symbol>

    <symbol id="aside__close-svg" viewBox="0 0 18 18">
        <g>
            <rect width="18" height="18" rx="2" fill="#0E0E0E" />
            <path d="M13.7255 4.28272C13.433 3.99022 12.9605 3.99022 12.668 4.28272L9.00053 7.94272L5.33303 4.27522C5.04053 3.98272 4.56803 3.98272 4.27553 4.27522C3.98303 4.56772 3.98303 5.04022 4.27553 5.33272L7.94303 9.00022L4.27553 12.6677C3.98303 12.9602 3.98303 13.4327 4.27553 13.7252C4.56803 14.0177 5.04053 14.0177 5.33303 13.7252L9.00053 10.0577L12.668 13.7252C12.9605 14.0177 13.433 14.0177 13.7255 13.7252C14.018 13.4327 14.018 12.9602 13.7255 12.6677L10.058 9.00022L13.7255 5.33272C14.0105 5.04772 14.0105 4.56772 13.7255 4.28272Z" fill="white" />
        </g>
    </symbol>

    <symbol id="aside__total-goals-svg" viewBox="0 0 7 13">
        <g>
            <path d="M-9.13085e-07 7.89286C-9.02304e-07 7.76953 0.0478507 7.65346 0.129882 7.56641L3.19238 4.31641C3.27441 4.22936 3.38379 4.17858 3.5 4.17858C3.61621 4.17858 3.72559 4.22936 3.80762 4.31641L6.87012 7.56641C6.95215 7.65346 7 7.76954 7 7.89286C7 8.14677 6.80176 8.35715 6.5625 8.35715L0.437499 8.35715C0.198241 8.35715 -9.35282e-07 8.14677 -9.13085e-07 7.89286Z" fill="white" />
        </g>
    </symbol>
</svg>